<?xml version="1.0" encoding="UTF-8" standalone="no"?><!DOCTYPE svg PUBLIC "-//W3C//DTD SVG 1.1//EN" "http://www.w3.org/Graphics/SVG/1.1/DTD/svg11.dtd"><svg width="100%" height="100%" viewBox="0 0 572 183" version="1.1" xmlns="http://www.w3.org/2000/svg" xmlns:xlink="http://www.w3.org/1999/xlink" xml:space="preserve" xmlns:serif="http://www.serif.com/" style="fill-rule:evenodd;clip-rule:evenodd;stroke-linejoin:round;stroke-miterlimit:1.41421;"><g id="画板1" transform="matrix(0.981006,0,0,0.842973,7.23939,30.0895)"><rect x="-7.38" y="-35.695" width="582.982" height="216.22" style="fill:none;"/><clipPath id="_clip1"><rect x="-7.38" y="-35.695" width="582.982" height="216.22"/></clipPath><g clip-path="url(#_clip1)"><g transform="matrix(1.01672,0,0,1.20074,-5.12444,-35.6868)"><rect x="-0.931" y="-0.536" width="570.655" height="181.606" style="fill:#fff;"/></g><g transform="matrix(0.101936,0,0,-0.118628,0.0229546,562.246)"><g transform="matrix(1,0,0,1,-1715.99,1441.16)"><path d="M2630,3419c30,-28 132,-112 225,-189c94,-76 197,-161 230,-189l60,-50l7,47c3,26 7,72 7,103c1,54 0,56 -54,110c-30,30 -82,70 -115,90c-69,42 -219,92 -335,113l-80,14l55,-49Z" style="fill:#8d589a;fill-rule:nonzero;"/></g><g transform="matrix(1,0,0,1,-1715.99,1441.16)"><path d="M4038,3457c-99,-37 -163,-93 -202,-177c-20,-43 -21,-63 -24,-457l-3,-413l271,0l0,385c0,372 1,386 20,405c39,39 100,14 100,-43c0,-28 -32,-57 -62,-57c-16,0 -18,-12 -18,-121l0,-122l68,7c91,8 132,21 180,56c139,100 144,339 10,467c-61,58 -113,78 -213,81c-57,1 -103,-3 -127,-11Z" style="fill-rule:nonzero;"/></g><g transform="matrix(1,0,0,1,-1715.99,1441.16)"><path d="M2402,3440c-40,-11 -107,-37 -150,-59c-75,-40 -202,-143 -223,-183c-10,-19 -9,-20 23,-13c29,6 335,74 551,123l78,18l-79,67c-51,43 -88,67 -103,66c-13,0 -57,-9 -97,-19Z" style="fill:#8d589a;fill-rule:nonzero;"/></g><g transform="matrix(1,0,0,1,-1715.99,1441.16)"><path d="M6620,3030c0,-268 3,-288 54,-355c30,-40 108,-81 169,-90l47,-7l0,200l-34,12c-37,12 -46,26 -46,71c0,27 2,29 40,29l40,0l0,200l-40,0l-39,0l-3,93l-3,92l-92,3l-93,3l0,-251Z" style="fill-rule:nonzero;"/></g><g transform="matrix(1,0,0,1,-1715.99,1441.16)"><path d="M2080,3149c-25,-4 -60,-11 -77,-14c-29,-5 -37,-14 -67,-78c-50,-106 -66,-184 -65,-318c2,-204 -4,-208 154,116c77,158 142,291 143,296c4,11 -26,10 -88,-2Z" style="fill:#8d589a;fill-rule:nonzero;"/></g><g transform="matrix(1,0,0,1,-1715.99,1441.16)"><path d="M3190,2840c0,-165 2,-300 5,-300c3,0 30,16 60,37c34,22 58,46 63,62c12,45 6,183 -12,251c-17,64 -99,250 -110,250c-3,0 -6,-135 -6,-300Z" style="fill:#8d589a;fill-rule:nonzero;"/></g><g transform="matrix(1,0,0,1,-1715.99,1441.16)"><path d="M4587,3096c-55,-15 -99,-53 -130,-111c-19,-36 -22,-60 -25,-217l-4,-178l192,0l0,129c0,136 7,174 36,185c39,15 54,-2 54,-62c0,-99 57,-187 153,-239c46,-25 169,-24 222,2c97,47 150,133 149,240c0,82 -21,130 -81,187c-51,50 -105,71 -179,71c-106,-1 -193,-54 -238,-145l-26,-52l0,192l-31,6c-38,7 -33,8 -92,-8Zm427,-197c52,-41 23,-129 -43,-129c-35,0 -71,40 -71,77c0,29 41,73 68,73c11,0 31,-9 46,-21Z" style="fill-rule:nonzero;"/></g><g transform="matrix(1,0,0,1,-1715.99,1441.16)"><path d="M5465,3103c-53,-9 -67,-16 -101,-46c-66,-57 -74,-88 -74,-289l0,-178l190,0l0,154c0,124 3,156 15,166c12,10 18,10 30,0c12,-10 15,-42 15,-166l0,-154l190,0l0,154c0,124 3,156 15,166c12,10 18,10 30,0c12,-10 15,-42 15,-166l0,-154l190,0l0,174c0,177 -6,217 -42,269c-26,37 -89,68 -142,69c-54,1 -83,-8 -124,-39l-33,-25l-40,27c-39,28 -97,44 -134,38Z" style="fill-rule:nonzero;"/></g><g transform="matrix(1,0,0,1,-1715.99,1441.16)"><path d="M6263,3099c-82,-15 -143,-62 -180,-137c-28,-57 -28,-57 -31,-304l-4,-248l192,0l0,215c0,236 8,279 52,290c34,9 76,-10 90,-39c24,-54 -33,-117 -87,-96l-25,10l0,-107l0,-106l65,5c133,11 230,107 242,239c16,174 -138,310 -314,278Z" style="fill-rule:nonzero;"/></g><g transform="matrix(1,0,0,1,-1715.99,1441.16)"><path d="M2420,3081c-129,-40 -219,-155 -243,-312c-28,-179 54,-346 189,-385c99,-28 199,5 288,95l50,50l30,-62c18,-36 42,-67 56,-75c27,-14 109,-11 198,8c52,12 53,13 50,43c-3,30 -6,32 -49,38c-83,12 -141,57 -177,138l-20,43l59,112c74,142 134,295 120,309c-6,6 -38,4 -96,-8c-96,-20 -92,-16 -120,-119l-17,-60l-29,54c-38,70 -65,98 -114,121c-41,19 -128,24 -175,10Zm146,-132c28,-27 72,-124 86,-193c11,-50 10,-58 -13,-102c-13,-26 -45,-69 -70,-96c-36,-38 -52,-48 -78,-48c-80,0 -114,59 -118,210c-3,91 0,112 19,160c39,94 115,124 174,69Z" style="fill:#8d589a;fill-rule:nonzero;"/></g><g transform="matrix(1,0,0,1,-1715.99,1441.16)"><path d="M1941,2596l-45,-83l36,-74c64,-134 170,-250 300,-328l38,-22l-16,38c-9,21 -53,117 -99,213c-45,96 -99,212 -120,258c-21,45 -41,82 -44,82c-3,0 -26,-38 -50,-84Z" style="fill:#8d589a;fill-rule:nonzero;"/></g><g transform="matrix(1,0,0,1,-1715.99,1441.16)"><path d="M3159,2452c-74,-54 -192,-141 -262,-194l-128,-96l82,-27c80,-27 82,-27 118,-10c120,57 223,181 305,368c14,31 24,57 23,57c-2,0 -64,-44 -138,-98Z" style="fill:#8d589a;fill-rule:nonzero;"/></g><g transform="matrix(1,0,0,1,-1715.99,1441.16)"><path d="M3627,2363c-4,-3 -7,-26 -7,-50l0,-43l1078,0l16,47c9,26 16,48 16,50c0,6 -1097,3 -1103,-4Z" style="fill-rule:nonzero;"/></g><g transform="matrix(1,0,0,1,-1715.99,1441.16)"><path d="M4796,2323c-9,-26 -16,-48 -16,-50c0,-2 40,-3 89,-3l89,0l16,40c9,22 16,45 16,50c0,6 -38,10 -89,10l-89,0l-16,-47Z" style="fill-rule:nonzero;"/></g><g transform="matrix(1,0,0,1,-1715.99,1441.16)"><path d="M5060,2345c-5,-14 -13,-37 -16,-50l-6,-25l2042,0l0,100l-1005,0l-1005,0l-10,-25Z" style="fill-rule:nonzero;"/></g><g transform="matrix(1,0,0,1,-1715.99,1441.16)"><path d="M2250,2237c0,-3 18,-43 39,-90c38,-83 40,-85 88,-101c133,-43 271,-42 432,6c64,19 70,23 50,31c-13,4 -148,40 -299,78c-151,38 -283,72 -292,75c-10,3 -18,3 -18,1Z" style="fill:#8d589a;fill-rule:nonzero;"/></g><g transform="matrix(1,0,0,1,-1715.99,1441.16)"><path d="M3650,2100c0,-82 3,-100 15,-100c12,0 15,18 15,100c0,82 -3,100 -15,100c-12,0 -15,-18 -15,-100Z" style="fill:#8e5a9c;fill-rule:nonzero;"/></g><g transform="matrix(1,0,0,1,-1715.99,1441.16)"><path d="M4880,2100c0,-82 3,-100 15,-100c12,0 15,18 15,100c0,82 -3,100 -15,100c-12,0 -15,-18 -15,-100Z" style="fill:#8e5a9c;fill-rule:nonzero;"/></g><g transform="matrix(1,0,0,1,-1715.99,1441.16)"><path d="M5470,2176c0,-9 7,-16 16,-16c9,0 14,5 12,12c-6,18 -28,21 -28,4Z" style="fill:#8e5a9c;fill-rule:nonzero;"/></g><g transform="matrix(1,0,0,1,-1715.99,1441.16)"><path d="M4370,2156c0,-13 -6,-27 -12,-30c-10,-5 -10,-7 0,-12c6,-3 12,-23 12,-44c0,-56 8,-70 41,-70c33,0 39,15 9,23c-16,4 -20,14 -20,46c0,34 3,41 20,41c11,0 20,5 20,10c0,6 -9,10 -20,10c-15,0 -20,7 -20,25c0,16 -6,25 -15,25c-9,0 -15,-9 -15,-24Z" style="fill:#8e5a9c;fill-rule:nonzero;"/></g><g transform="matrix(1,0,0,1,-1715.99,1441.16)"><path d="M4720,2155c0,-19 -5,-25 -21,-25c-11,0 -29,-10 -39,-22l-17,-22l-14,22c-8,12 -19,22 -26,22c-18,0 -16,-7 7,-40c19,-27 19,-27 0,-45c-21,-19 -27,-45 -11,-45c6,0 17,10 25,22l16,22l23,-22c13,-12 26,-22 30,-22c14,0 6,24 -15,47c-21,22 -21,23 -3,43c29,32 45,25 45,-19c0,-57 8,-71 41,-71c33,0 39,15 9,23c-16,4 -20,14 -20,46c0,34 3,41 20,41c11,0 20,5 20,10c0,6 -9,10 -20,10c-15,0 -20,7 -20,25c0,16 -6,25 -15,25c-9,0 -15,-9 -15,-25Z" style="fill:#8e5a9c;fill-rule:nonzero;"/></g><g transform="matrix(1,0,0,1,-1715.99,1441.16)"><path d="M3765,2130c-3,-5 -18,-7 -33,-4l-27,6l3,-66c3,-47 8,-66 17,-66c10,0 15,16 17,53c3,48 5,52 31,55c27,3 27,2 27,-52c0,-43 3,-56 15,-56c12,0 15,13 15,58c0,32 -5,63 -12,70c-14,14 -44,16 -53,2Z" style="fill:#8e5a9c;fill-rule:nonzero;"/></g><g transform="matrix(1,0,0,1,-1715.99,1441.16)"><path d="M3976,2121c-23,-25 -24,-76 -1,-101c22,-25 85,-28 85,-5c0,11 -7,14 -24,9c-33,-8 -63,34 -46,65c11,21 20,25 54,21c11,-1 17,3 14,12c-7,22 -62,22 -82,-1Z" style="fill:#8e5a9c;fill-rule:nonzero;"/></g><g transform="matrix(1,0,0,1,-1715.99,1441.16)"><path d="M4090,2120c-26,-26 -26,-81 -2,-103c27,-25 78,-22 96,5c34,49 5,118 -49,118c-14,0 -34,-9 -45,-20Zm80,-31c9,-16 8,-26 -5,-45c-19,-29 -36,-30 -60,-4c-15,17 -16,24 -7,45c15,32 56,34 72,4Z" style="fill:#8e5a9c;fill-rule:nonzero;"/></g><g transform="matrix(1,0,0,1,-1715.99,1441.16)"><path d="M4275,2130c-3,-6 -17,-7 -31,-4c-24,6 -24,5 -24,-60c0,-51 3,-66 14,-66c11,0 16,15 18,53c3,48 5,52 31,55c27,3 27,2 27,-52c0,-43 3,-56 15,-56c12,0 15,13 15,58c0,32 -5,63 -12,70c-15,15 -45,16 -53,2Z" style="fill:#8e5a9c;fill-rule:nonzero;"/></g><g transform="matrix(1,0,0,1,-1715.99,1441.16)"><path d="M4471,2114c-24,-30 -26,-46 -10,-77c16,-30 28,-37 65,-37c33,0 63,23 45,34c-5,4 -12,2 -16,-4c-9,-14 -51,-12 -64,3c-15,19 -4,27 41,27c46,0 58,19 34,55c-23,34 -68,34 -95,-1Zm67,-6c20,-20 14,-28 -23,-28c-19,0 -35,4 -35,8c0,12 22,32 35,32c6,0 16,-5 23,-12Z" style="fill:#8e5a9c;fill-rule:nonzero;"/></g><g transform="matrix(1,0,0,1,-1715.99,1441.16)"><path d="M4950,2120c-41,-41 -14,-120 40,-120c38,0 60,9 60,25c0,10 -6,11 -29,2c-23,-8 -33,-8 -45,2c-27,22 -18,31 29,31c41,0 45,2 45,24c0,52 -62,74 -100,36Zm68,-23c3,-13 -3,-17 -27,-17c-33,0 -39,8 -19,28c17,17 42,11 46,-11Z" style="fill:#8e5a9c;fill-rule:nonzero;"/></g><g transform="matrix(1,0,0,1,-1715.99,1441.16)"><path d="M5087,2122c-53,-59 6,-148 74,-112c13,7 19,7 19,0c0,-5 6,-10 13,-10c10,0 13,17 13,65c-1,57 -3,64 -21,64c-11,0 -34,3 -50,6c-23,5 -35,2 -48,-13Zm84,-34c8,-14 6,-25 -6,-44c-19,-30 -39,-31 -59,-2c-20,29 -20,34 4,58c22,22 45,18 61,-12Z" style="fill:#8e5a9c;fill-rule:nonzero;"/></g><g transform="matrix(1,0,0,1,-1715.99,1441.16)"><path d="M5237,2134c-4,-4 -7,-36 -7,-71c0,-49 3,-63 15,-63c11,0 15,12 15,50c0,28 5,51 10,51c6,1 14,2 19,3c16,2 23,14 16,25c-4,7 -12,8 -24,1c-11,-6 -21,-6 -28,1c-5,5 -12,6 -16,3Z" style="fill:#8e5a9c;fill-rule:nonzero;"/></g><g transform="matrix(1,0,0,1,-1715.99,1441.16)"><path d="M5380,2130c-8,-5 -25,-7 -37,-3c-22,5 -23,3 -23,-61c0,-52 3,-66 15,-66c11,0 15,12 15,50c0,45 2,50 26,56c33,8 44,-7 44,-63c0,-24 5,-43 10,-43c6,0 10,28 10,64c0,49 -4,65 -16,70c-21,8 -26,7 -44,-4Z" style="fill:#8e5a9c;fill-rule:nonzero;"/></g><g transform="matrix(1,0,0,1,-1715.99,1441.16)"><path d="M5580,2130c-8,-5 -26,-6 -39,-3c-20,5 -23,3 -18,-11c4,-10 7,-40 7,-67c0,-36 4,-49 14,-49c11,0 16,15 18,53c3,48 5,52 31,55c27,3 27,2 27,-52c0,-43 3,-56 15,-56c12,0 15,13 15,58c0,74 -25,100 -70,72Z" style="fill:#8e5a9c;fill-rule:nonzero;"/></g><g transform="matrix(1,0,0,1,-1715.99,1441.16)"><path d="M5687,2122c-23,-26 -21,-75 4,-97c17,-16 25,-17 50,-8c26,10 30,10 27,-5c-2,-12 -15,-18 -46,-20c-59,-4 -53,-22 8,-22c61,0 70,13 70,104c0,52 -3,66 -15,66c-8,0 -15,-5 -15,-10c0,-7 -6,-7 -19,0c-28,15 -46,12 -64,-8Zm67,-18c20,-19 20,-35 2,-60c-12,-15 -18,-17 -33,-8c-22,14 -29,50 -13,70c16,18 25,18 44,-2Z" style="fill:#8e5a9c;fill-rule:nonzero;"/></g><g transform="matrix(1,0,0,1,-1715.99,1441.16)"><path d="M6090,2080l0,-60l50,0c38,0 50,4 50,15c0,9 -9,15 -25,15c-14,0 -25,5 -25,10c0,6 7,10 15,10c8,0 15,7 15,15c0,8 -7,15 -15,15c-8,0 -15,5 -15,10c0,6 11,10 25,10c14,0 25,5 25,10c0,6 -22,10 -50,10l-50,0l0,-60Z" style="fill:#8e5a9c;fill-rule:nonzero;"/></g><g transform="matrix(1,0,0,1,-1715.99,1441.16)"><path d="M6467,2087c-22,-68 -22,-67 8,-67c14,0 25,5 25,10c0,6 11,10 25,10c14,0 25,-4 25,-10c0,-5 12,-10 26,-10c23,0 25,3 19,27c-3,15 -13,42 -20,60c-12,29 -18,33 -53,33c-38,0 -39,-1 -55,-53Zm67,-2c3,-9 0,-15 -9,-15c-9,0 -12,6 -9,15c4,8 7,15 9,15c2,0 5,-7 9,-15Z" style="fill:#8e5a9c;fill-rule:nonzero;"/></g><g transform="matrix(1,0,0,1,-1715.99,1441.16)"><path d="M6620,2080c0,-57 1,-60 25,-60c24,0 25,3 25,60c0,57 -1,60 -25,60c-24,0 -25,-3 -25,-60Z" style="fill:#8e5a9c;fill-rule:nonzero;"/></g><g transform="matrix(1,0,0,1,-1715.99,1441.16)"><path d="M6820,2080c0,-57 1,-60 25,-60c22,0 25,4 25,35c0,19 5,35 10,35c6,0 10,-16 10,-35c0,-31 3,-35 25,-35c21,0 25,5 25,31c0,47 -17,72 -46,65c-17,-5 -24,-2 -24,9c0,9 -9,15 -25,15c-24,0 -25,-3 -25,-60Z" style="fill:#8e5a9c;fill-rule:nonzero;"/></g><g transform="matrix(1,0,0,1,-1715.99,1441.16)"><path d="M5470,2065c0,-51 3,-65 15,-65c12,0 15,14 15,65c0,51 -3,65 -15,65c-12,0 -15,-14 -15,-65Z" style="fill:#8e5a9c;fill-rule:nonzero;"/></g><g transform="matrix(1,0,0,1,-1715.99,1441.16)"><path d="M6216,2107c-26,-19 -13,-57 20,-57c13,0 24,-5 24,-11c0,-7 -11,-9 -31,-5c-25,5 -30,3 -27,-12c2,-12 15,-18 47,-20c53,-4 61,5 61,71l0,47l-38,0c-21,0 -46,-6 -56,-13Zm44,-27c0,-5 -4,-10 -10,-10c-5,0 -10,5 -10,10c0,6 5,10 10,10c6,0 10,-4 10,-10Z" style="fill:#8e5a9c;fill-rule:nonzero;"/></g><g transform="matrix(1,0,0,1,-1715.99,1441.16)"><path d="M6346,2104c-32,-31 -8,-84 38,-84c30,0 46,18 46,52c0,43 -53,64 -84,32Zm44,-34c0,-5 -4,-10 -10,-10c-5,0 -10,5 -10,10c0,6 5,10 10,10c6,0 10,-4 10,-10Z" style="fill:#8e5a9c;fill-rule:nonzero;"/></g><g transform="matrix(1,0,0,1,-1715.99,1441.16)"><path d="M6690,2059c0,-56 1,-59 25,-59c14,0 25,5 25,10c0,6 8,10 18,10c26,0 42,20 42,51c0,35 -15,45 -67,47l-43,1l0,-60Zm70,12c0,-6 -4,-13 -10,-16c-5,-3 -10,1 -10,9c0,9 5,16 10,16c6,0 10,-4 10,-9Z" style="fill:#8e5a9c;fill-rule:nonzero;"/></g><g transform="matrix(1,0,0,1,-1715.99,1441.16)"><path d="M6973,2113c-7,-2 -13,-11 -13,-19c0,-8 6,-11 15,-8c8,3 20,2 27,-2c9,-6 5,-10 -12,-14c-16,-4 -25,-13 -25,-25c0,-16 8,-20 43,-22l42,-3l0,44c0,31 -5,46 -16,50c-18,7 -43,7 -61,-1Zm37,-63c0,-5 -4,-10 -10,-10c-5,0 -10,5 -10,10c0,6 5,10 10,10c6,0 10,-4 10,-10Z" style="fill:#8e5a9c;fill-rule:nonzero;"/></g><g transform="matrix(1,0,0,1,-1715.99,1441.16)"><path d="M3857,2093c-16,-16 -4,-23 38,-23c33,0 45,4 45,15c0,11 -11,15 -38,15c-21,0 -42,-3 -45,-7Z" style="fill:#8e5a9c;fill-rule:nonzero;"/></g></g></g></g></svg>