<?xml version="1.0" encoding="UTF-8" standalone="no"?>
<!DOCTYPE svg PUBLIC "-//W3C//DTD SVG 1.1//EN" "http://www.w3.org/Graphics/SVG/1.1/DTD/svg11.dtd">
<svg width="100%" height="100%" viewBox="0 0 572 183" version="1.1" xmlns="http://www.w3.org/2000/svg" xmlns:xlink="http://www.w3.org/1999/xlink" xml:space="preserve" xmlns:serif="http://www.serif.com/" style="fill-rule:evenodd;clip-rule:evenodd;stroke-linejoin:round;stroke-miterlimit:1.41421;">
    <g transform="matrix(0.981006,0,0,0.842973,7.23939,30.0895)">
        <rect x="-7.38" y="-35.695" width="582.982" height="216.22" style="fill:none;"/>
        <g transform="matrix(0.101936,0,0,-0.118628,0.0229546,562.246)">
            <g transform="matrix(1,0,0,1,-1715.99,1441.16)">
                <path d="M2630,3419C2660,3391 2762,3307 2855,3230C2949,3154 3052,3069 3085,3041L3145,2991L3152,3038C3155,3064 3159,3110 3159,3141C3160,3195 3159,3197 3105,3251C3075,3281 3023,3321 2990,3341C2921,3383 2771,3433 2655,3454L2575,3468L2630,3419Z" style="fill:rgb(141,88,154);fill-rule:nonzero;"/>
            </g>
            <g transform="matrix(1,0,0,1,-1715.99,1441.16)">
                <path d="M4038,3457C3939,3420 3875,3364 3836,3280C3816,3237 3815,3217 3812,2823L3809,2410L4080,2410L4080,2795C4080,3167 4081,3181 4100,3200C4139,3239 4200,3214 4200,3157C4200,3129 4168,3100 4138,3100C4122,3100 4120,3088 4120,2979L4120,2857L4188,2864C4279,2872 4320,2885 4368,2920C4507,3020 4512,3259 4378,3387C4317,3445 4265,3465 4165,3468C4108,3469 4062,3465 4038,3457Z" style="fill-rule:nonzero;"/>
            </g>
            <g transform="matrix(1,0,0,1,-1715.99,1441.16)">
                <path d="M2402,3440C2362,3429 2295,3403 2252,3381C2177,3341 2050,3238 2029,3198C2019,3179 2020,3178 2052,3185C2081,3191 2387,3259 2603,3308L2681,3326L2602,3393C2551,3436 2514,3460 2499,3459C2486,3459 2442,3450 2402,3440Z" style="fill:rgb(141,88,154);fill-rule:nonzero;"/>
            </g>
            <g transform="matrix(1,0,0,1,-1715.99,1441.16)">
                <path d="M6620,3030C6620,2762 6623,2742 6674,2675C6704,2635 6782,2594 6843,2585L6890,2578L6890,2778L6856,2790C6819,2802 6810,2816 6810,2861C6810,2888 6812,2890 6850,2890L6890,2890L6890,3090L6850,3090L6811,3090L6808,3183L6805,3275L6713,3278L6620,3281L6620,3030Z" style="fill-rule:nonzero;"/>
            </g>
            <g transform="matrix(1,0,0,1,-1715.99,1441.16)">
                <path d="M2080,3149C2055,3145 2020,3138 2003,3135C1974,3130 1966,3121 1936,3057C1886,2951 1870,2873 1871,2739C1873,2535 1867,2531 2025,2855C2102,3013 2167,3146 2168,3151C2172,3162 2142,3161 2080,3149Z" style="fill:rgb(141,88,154);fill-rule:nonzero;"/>
            </g>
            <g transform="matrix(1,0,0,1,-1715.99,1441.16)">
                <path d="M3190,2840C3190,2675 3192,2540 3195,2540C3198,2540 3225,2556 3255,2577C3289,2599 3313,2623 3318,2639C3330,2684 3324,2822 3306,2890C3289,2954 3207,3140 3196,3140C3193,3140 3190,3005 3190,2840Z" style="fill:rgb(141,88,154);fill-rule:nonzero;"/>
            </g>
            <g transform="matrix(1,0,0,1,-1715.99,1441.16)">
                <path d="M4587,3096C4532,3081 4488,3043 4457,2985C4438,2949 4435,2925 4432,2768L4428,2590L4620,2590L4620,2719C4620,2855 4627,2893 4656,2904C4695,2919 4710,2902 4710,2842C4710,2743 4767,2655 4863,2603C4909,2578 5032,2579 5085,2605C5182,2652 5235,2738 5234,2845C5234,2927 5213,2975 5153,3032C5102,3082 5048,3103 4974,3103C4868,3102 4781,3049 4736,2958L4710,2906L4710,3098L4679,3104C4641,3111 4646,3112 4587,3096ZM5014,2899C5066,2858 5037,2770 4971,2770C4936,2770 4900,2810 4900,2847C4900,2876 4941,2920 4968,2920C4979,2920 4999,2911 5014,2899Z" style="fill-rule:nonzero;"/>
            </g>
            <g transform="matrix(1,0,0,1,-1715.99,1441.16)">
                <path d="M5465,3103C5412,3094 5398,3087 5364,3057C5298,3000 5290,2969 5290,2768L5290,2590L5480,2590L5480,2744C5480,2868 5483,2900 5495,2910C5507,2920 5513,2920 5525,2910C5537,2900 5540,2868 5540,2744L5540,2590L5730,2590L5730,2744C5730,2868 5733,2900 5745,2910C5757,2920 5763,2920 5775,2910C5787,2900 5790,2868 5790,2744L5790,2590L5980,2590L5980,2764C5980,2941 5974,2981 5938,3033C5912,3070 5849,3101 5796,3102C5742,3103 5713,3094 5672,3063L5639,3038L5599,3065C5560,3093 5502,3109 5465,3103Z" style="fill-rule:nonzero;"/>
            </g>
            <g transform="matrix(1,0,0,1,-1715.99,1441.16)">
                <path d="M6263,3099C6181,3084 6120,3037 6083,2962C6055,2905 6055,2905 6052,2658L6048,2410L6240,2410L6240,2625C6240,2861 6248,2904 6292,2915C6326,2924 6368,2905 6382,2876C6406,2822 6349,2759 6295,2780L6270,2790L6270,2683L6270,2577L6335,2582C6468,2593 6565,2689 6577,2821C6593,2995 6439,3131 6263,3099Z" style="fill-rule:nonzero;"/>
            </g>
            <g transform="matrix(1,0,0,1,-1715.99,1441.16)">
                <path d="M2420,3081C2291,3041 2201,2926 2177,2769C2149,2590 2231,2423 2366,2384C2465,2356 2565,2389 2654,2479L2704,2529L2734,2467C2752,2431 2776,2400 2790,2392C2817,2378 2899,2381 2988,2400C3040,2412 3041,2413 3038,2443C3035,2473 3032,2475 2989,2481C2906,2493 2848,2538 2812,2619L2792,2662L2851,2774C2925,2916 2985,3069 2971,3083C2965,3089 2933,3087 2875,3075C2779,3055 2783,3059 2755,2956L2738,2896L2709,2950C2671,3020 2644,3048 2595,3071C2554,3090 2467,3095 2420,3081ZM2566,2949C2594,2922 2638,2825 2652,2756C2663,2706 2662,2698 2639,2654C2626,2628 2594,2585 2569,2558C2533,2520 2517,2510 2491,2510C2411,2510 2377,2569 2373,2720C2370,2811 2373,2832 2392,2880C2431,2974 2507,3004 2566,2949Z" style="fill:rgb(141,88,154);fill-rule:nonzero;"/>
            </g>
            <g transform="matrix(1,0,0,1,-1715.99,1441.16)">
                <path d="M1941,2596L1896,2513L1932,2439C1996,2305 2102,2189 2232,2111L2270,2089L2254,2127C2245,2148 2201,2244 2155,2340C2110,2436 2056,2552 2035,2598C2014,2643 1994,2680 1991,2680C1988,2680 1965,2642 1941,2596Z" style="fill:rgb(141,88,154);fill-rule:nonzero;"/>
            </g>
            <g transform="matrix(1,0,0,1,-1715.99,1441.16)">
                <path d="M3159,2452C3085,2398 2967,2311 2897,2258L2769,2162L2851,2135C2931,2108 2933,2108 2969,2125C3089,2182 3192,2306 3274,2493C3288,2524 3298,2550 3297,2550C3295,2550 3233,2506 3159,2452Z" style="fill:rgb(141,88,154);fill-rule:nonzero;"/>
            </g>
            <g transform="matrix(1,0,0,1,-1715.99,1441.16)">
                <path d="M3627,2363C3623,2360 3620,2337 3620,2313L3620,2270L4698,2270L4714,2317C4723,2343 4730,2365 4730,2367C4730,2373 3633,2370 3627,2363Z" style="fill-rule:nonzero;"/>
            </g>
            <g transform="matrix(1,0,0,1,-1715.99,1441.16)">
                <path d="M4796,2323C4787,2297 4780,2275 4780,2273C4780,2271 4820,2270 4869,2270L4958,2270L4974,2310C4983,2332 4990,2355 4990,2360C4990,2366 4952,2370 4901,2370L4812,2370L4796,2323Z" style="fill-rule:nonzero;"/>
            </g>
            <g transform="matrix(1,0,0,1,-1715.99,1441.16)">
                <path d="M5060,2345C5055,2331 5047,2308 5044,2295L5038,2270L7080,2270L7080,2370L6075,2370L5070,2370L5060,2345Z" style="fill-rule:nonzero;"/>
            </g>
            <g transform="matrix(1,0,0,1,-1715.99,1441.16)">
                <path d="M2250,2237C2250,2234 2268,2194 2289,2147C2327,2064 2329,2062 2377,2046C2510,2003 2648,2004 2809,2052C2873,2071 2879,2075 2859,2083C2846,2087 2711,2123 2560,2161C2409,2199 2277,2233 2268,2236C2258,2239 2250,2239 2250,2237Z" style="fill:rgb(141,88,154);fill-rule:nonzero;"/>
            </g>
            <g transform="matrix(1,0,0,1,-1715.99,1441.16)">
                <path d="M3650,2100C3650,2018 3653,2000 3665,2000C3677,2000 3680,2018 3680,2100C3680,2182 3677,2200 3665,2200C3653,2200 3650,2182 3650,2100Z" style="fill:rgb(142,90,156);fill-rule:nonzero;"/>
            </g>
            <g transform="matrix(1,0,0,1,-1715.99,1441.16)">
                <path d="M4880,2100C4880,2018 4883,2000 4895,2000C4907,2000 4910,2018 4910,2100C4910,2182 4907,2200 4895,2200C4883,2200 4880,2182 4880,2100Z" style="fill:rgb(142,90,156);fill-rule:nonzero;"/>
            </g>
            <g transform="matrix(1,0,0,1,-1715.99,1441.16)">
                <path d="M5470,2176C5470,2167 5477,2160 5486,2160C5495,2160 5500,2165 5498,2172C5492,2190 5470,2193 5470,2176Z" style="fill:rgb(142,90,156);fill-rule:nonzero;"/>
            </g>
            <g transform="matrix(1,0,0,1,-1715.99,1441.16)">
                <path d="M4370,2156C4370,2143 4364,2129 4358,2126C4348,2121 4348,2119 4358,2114C4364,2111 4370,2091 4370,2070C4370,2014 4378,2000 4411,2000C4444,2000 4450,2015 4420,2023C4404,2027 4400,2037 4400,2069C4400,2103 4403,2110 4420,2110C4431,2110 4440,2115 4440,2120C4440,2126 4431,2130 4420,2130C4405,2130 4400,2137 4400,2155C4400,2171 4394,2180 4385,2180C4376,2180 4370,2171 4370,2156Z" style="fill:rgb(142,90,156);fill-rule:nonzero;"/>
            </g>
            <g transform="matrix(1,0,0,1,-1715.99,1441.16)">
                <path d="M4720,2155C4720,2136 4715,2130 4699,2130C4688,2130 4670,2120 4660,2108L4643,2086L4629,2108C4621,2120 4610,2130 4603,2130C4585,2130 4587,2123 4610,2090C4629,2063 4629,2063 4610,2045C4589,2026 4583,2000 4599,2000C4605,2000 4616,2010 4624,2022L4640,2044L4663,2022C4676,2010 4689,2000 4693,2000C4707,2000 4699,2024 4678,2047C4657,2069 4657,2070 4675,2090C4704,2122 4720,2115 4720,2071C4720,2014 4728,2000 4761,2000C4794,2000 4800,2015 4770,2023C4754,2027 4750,2037 4750,2069C4750,2103 4753,2110 4770,2110C4781,2110 4790,2115 4790,2120C4790,2126 4781,2130 4770,2130C4755,2130 4750,2137 4750,2155C4750,2171 4744,2180 4735,2180C4726,2180 4720,2171 4720,2155Z" style="fill:rgb(142,90,156);fill-rule:nonzero;"/>
            </g>
            <g transform="matrix(1,0,0,1,-1715.99,1441.16)">
                <path d="M3765,2130C3762,2125 3747,2123 3732,2126L3705,2132L3708,2066C3711,2019 3716,2000 3725,2000C3735,2000 3740,2016 3742,2053C3745,2101 3747,2105 3773,2108C3800,2111 3800,2110 3800,2056C3800,2013 3803,2000 3815,2000C3827,2000 3830,2013 3830,2058C3830,2090 3825,2121 3818,2128C3804,2142 3774,2144 3765,2130Z" style="fill:rgb(142,90,156);fill-rule:nonzero;"/>
            </g>
            <g transform="matrix(1,0,0,1,-1715.99,1441.16)">
                <path d="M3976,2121C3953,2096 3952,2045 3975,2020C3997,1995 4060,1992 4060,2015C4060,2026 4053,2029 4036,2024C4003,2016 3973,2058 3990,2089C4001,2110 4010,2114 4044,2110C4055,2109 4061,2113 4058,2122C4051,2144 3996,2144 3976,2121Z" style="fill:rgb(142,90,156);fill-rule:nonzero;"/>
            </g>
            <g transform="matrix(1,0,0,1,-1715.99,1441.16)">
                <path d="M4090,2120C4064,2094 4064,2039 4088,2017C4115,1992 4166,1995 4184,2022C4218,2071 4189,2140 4135,2140C4121,2140 4101,2131 4090,2120ZM4170,2089C4179,2073 4178,2063 4165,2044C4146,2015 4129,2014 4105,2040C4090,2057 4089,2064 4098,2085C4113,2117 4154,2119 4170,2089Z" style="fill:rgb(142,90,156);fill-rule:nonzero;"/>
            </g>
            <g transform="matrix(1,0,0,1,-1715.99,1441.16)">
                <path d="M4275,2130C4272,2124 4258,2123 4244,2126C4220,2132 4220,2131 4220,2066C4220,2015 4223,2000 4234,2000C4245,2000 4250,2015 4252,2053C4255,2101 4257,2105 4283,2108C4310,2111 4310,2110 4310,2056C4310,2013 4313,2000 4325,2000C4337,2000 4340,2013 4340,2058C4340,2090 4335,2121 4328,2128C4313,2143 4283,2144 4275,2130Z" style="fill:rgb(142,90,156);fill-rule:nonzero;"/>
            </g>
            <g transform="matrix(1,0,0,1,-1715.99,1441.16)">
                <path d="M4471,2114C4447,2084 4445,2068 4461,2037C4477,2007 4489,2000 4526,2000C4559,2000 4589,2023 4571,2034C4566,2038 4559,2036 4555,2030C4546,2016 4504,2018 4491,2033C4476,2052 4487,2060 4532,2060C4578,2060 4590,2079 4566,2115C4543,2149 4498,2149 4471,2114ZM4538,2108C4558,2088 4552,2080 4515,2080C4496,2080 4480,2084 4480,2088C4480,2100 4502,2120 4515,2120C4521,2120 4531,2115 4538,2108Z" style="fill:rgb(142,90,156);fill-rule:nonzero;"/>
            </g>
            <g transform="matrix(1,0,0,1,-1715.99,1441.16)">
                <path d="M4950,2120C4909,2079 4936,2000 4990,2000C5028,2000 5050,2009 5050,2025C5050,2035 5044,2036 5021,2027C4998,2019 4988,2019 4976,2029C4949,2051 4958,2060 5005,2060C5046,2060 5050,2062 5050,2084C5050,2136 4988,2158 4950,2120ZM5018,2097C5021,2084 5015,2080 4991,2080C4958,2080 4952,2088 4972,2108C4989,2125 5014,2119 5018,2097Z" style="fill:rgb(142,90,156);fill-rule:nonzero;"/>
            </g>
            <g transform="matrix(1,0,0,1,-1715.99,1441.16)">
                <path d="M5087,2122C5034,2063 5093,1974 5161,2010C5174,2017 5180,2017 5180,2010C5180,2005 5186,2000 5193,2000C5203,2000 5206,2017 5206,2065C5205,2122 5203,2129 5185,2129C5174,2129 5151,2132 5135,2135C5112,2140 5100,2137 5087,2122ZM5171,2088C5179,2074 5177,2063 5165,2044C5146,2014 5126,2013 5106,2042C5086,2071 5086,2076 5110,2100C5132,2122 5155,2118 5171,2088Z" style="fill:rgb(142,90,156);fill-rule:nonzero;"/>
            </g>
            <g transform="matrix(1,0,0,1,-1715.99,1441.16)">
                <path d="M5237,2134C5233,2130 5230,2098 5230,2063C5230,2014 5233,2000 5245,2000C5256,2000 5260,2012 5260,2050C5260,2078 5265,2101 5270,2101C5276,2102 5284,2103 5289,2104C5305,2106 5312,2118 5305,2129C5301,2136 5293,2137 5281,2130C5270,2124 5260,2124 5253,2131C5248,2136 5241,2137 5237,2134Z" style="fill:rgb(142,90,156);fill-rule:nonzero;"/>
            </g>
            <g transform="matrix(1,0,0,1,-1715.99,1441.16)">
                <path d="M5380,2130C5372,2125 5355,2123 5343,2127C5321,2132 5320,2130 5320,2066C5320,2014 5323,2000 5335,2000C5346,2000 5350,2012 5350,2050C5350,2095 5352,2100 5376,2106C5409,2114 5420,2099 5420,2043C5420,2019 5425,2000 5430,2000C5436,2000 5440,2028 5440,2064C5440,2113 5436,2129 5424,2134C5403,2142 5398,2141 5380,2130Z" style="fill:rgb(142,90,156);fill-rule:nonzero;"/>
            </g>
            <g transform="matrix(1,0,0,1,-1715.99,1441.16)">
                <path d="M5580,2130C5572,2125 5554,2124 5541,2127C5521,2132 5518,2130 5523,2116C5527,2106 5530,2076 5530,2049C5530,2013 5534,2000 5544,2000C5555,2000 5560,2015 5562,2053C5565,2101 5567,2105 5593,2108C5620,2111 5620,2110 5620,2056C5620,2013 5623,2000 5635,2000C5647,2000 5650,2013 5650,2058C5650,2132 5625,2158 5580,2130Z" style="fill:rgb(142,90,156);fill-rule:nonzero;"/>
            </g>
            <g transform="matrix(1,0,0,1,-1715.99,1441.16)">
                <path d="M5687,2122C5664,2096 5666,2047 5691,2025C5708,2009 5716,2008 5741,2017C5767,2027 5771,2027 5768,2012C5766,2000 5753,1994 5722,1992C5663,1988 5669,1970 5730,1970C5791,1970 5800,1983 5800,2074C5800,2126 5797,2140 5785,2140C5777,2140 5770,2135 5770,2130C5770,2123 5764,2123 5751,2130C5723,2145 5705,2142 5687,2122ZM5754,2104C5774,2085 5774,2069 5756,2044C5744,2029 5738,2027 5723,2036C5701,2050 5694,2086 5710,2106C5726,2124 5735,2124 5754,2104Z" style="fill:rgb(142,90,156);fill-rule:nonzero;"/>
            </g>
            <g transform="matrix(1,0,0,1,-1715.99,1441.16)">
                <path d="M6090,2080L6090,2020L6140,2020C6178,2020 6190,2024 6190,2035C6190,2044 6181,2050 6165,2050C6151,2050 6140,2055 6140,2060C6140,2066 6147,2070 6155,2070C6163,2070 6170,2077 6170,2085C6170,2093 6163,2100 6155,2100C6147,2100 6140,2105 6140,2110C6140,2116 6151,2120 6165,2120C6179,2120 6190,2125 6190,2130C6190,2136 6168,2140 6140,2140L6090,2140L6090,2080Z" style="fill:rgb(142,90,156);fill-rule:nonzero;"/>
            </g>
            <g transform="matrix(1,0,0,1,-1715.99,1441.16)">
                <path d="M6467,2087C6445,2019 6445,2020 6475,2020C6489,2020 6500,2025 6500,2030C6500,2036 6511,2040 6525,2040C6539,2040 6550,2036 6550,2030C6550,2025 6562,2020 6576,2020C6599,2020 6601,2023 6595,2047C6592,2062 6582,2089 6575,2107C6563,2136 6557,2140 6522,2140C6484,2140 6483,2139 6467,2087ZM6534,2085C6537,2076 6534,2070 6525,2070C6516,2070 6513,2076 6516,2085C6520,2093 6523,2100 6525,2100C6527,2100 6530,2093 6534,2085Z" style="fill:rgb(142,90,156);fill-rule:nonzero;"/>
            </g>
            <g transform="matrix(1,0,0,1,-1715.99,1441.16)">
                <path d="M6620,2080C6620,2023 6621,2020 6645,2020C6669,2020 6670,2023 6670,2080C6670,2137 6669,2140 6645,2140C6621,2140 6620,2137 6620,2080Z" style="fill:rgb(142,90,156);fill-rule:nonzero;"/>
            </g>
            <g transform="matrix(1,0,0,1,-1715.99,1441.16)">
                <path d="M6820,2080C6820,2023 6821,2020 6845,2020C6867,2020 6870,2024 6870,2055C6870,2074 6875,2090 6880,2090C6886,2090 6890,2074 6890,2055C6890,2024 6893,2020 6915,2020C6936,2020 6940,2025 6940,2051C6940,2098 6923,2123 6894,2116C6877,2111 6870,2114 6870,2125C6870,2134 6861,2140 6845,2140C6821,2140 6820,2137 6820,2080Z" style="fill:rgb(142,90,156);fill-rule:nonzero;"/>
            </g>
            <g transform="matrix(1,0,0,1,-1715.99,1441.16)">
                <path d="M5470,2065C5470,2014 5473,2000 5485,2000C5497,2000 5500,2014 5500,2065C5500,2116 5497,2130 5485,2130C5473,2130 5470,2116 5470,2065Z" style="fill:rgb(142,90,156);fill-rule:nonzero;"/>
            </g>
            <g transform="matrix(1,0,0,1,-1715.99,1441.16)">
                <path d="M6216,2107C6190,2088 6203,2050 6236,2050C6249,2050 6260,2045 6260,2039C6260,2032 6249,2030 6229,2034C6204,2039 6199,2037 6202,2022C6204,2010 6217,2004 6249,2002C6302,1998 6310,2007 6310,2073L6310,2120L6272,2120C6251,2120 6226,2114 6216,2107ZM6260,2080C6260,2075 6256,2070 6250,2070C6245,2070 6240,2075 6240,2080C6240,2086 6245,2090 6250,2090C6256,2090 6260,2086 6260,2080Z" style="fill:rgb(142,90,156);fill-rule:nonzero;"/>
            </g>
            <g transform="matrix(1,0,0,1,-1715.99,1441.16)">
                <path d="M6346,2104C6314,2073 6338,2020 6384,2020C6414,2020 6430,2038 6430,2072C6430,2115 6377,2136 6346,2104ZM6390,2070C6390,2065 6386,2060 6380,2060C6375,2060 6370,2065 6370,2070C6370,2076 6375,2080 6380,2080C6386,2080 6390,2076 6390,2070Z" style="fill:rgb(142,90,156);fill-rule:nonzero;"/>
            </g>
            <g transform="matrix(1,0,0,1,-1715.99,1441.16)">
                <path d="M6690,2059C6690,2003 6691,2000 6715,2000C6729,2000 6740,2005 6740,2010C6740,2016 6748,2020 6758,2020C6784,2020 6800,2040 6800,2071C6800,2106 6785,2116 6733,2118L6690,2119L6690,2059ZM6760,2071C6760,2065 6756,2058 6750,2055C6745,2052 6740,2056 6740,2064C6740,2073 6745,2080 6750,2080C6756,2080 6760,2076 6760,2071Z" style="fill:rgb(142,90,156);fill-rule:nonzero;"/>
            </g>
            <g transform="matrix(1,0,0,1,-1715.99,1441.16)">
                <path d="M6973,2113C6966,2111 6960,2102 6960,2094C6960,2086 6966,2083 6975,2086C6983,2089 6995,2088 7002,2084C7011,2078 7007,2074 6990,2070C6974,2066 6965,2057 6965,2045C6965,2029 6973,2025 7008,2023L7050,2020L7050,2064C7050,2095 7045,2110 7034,2114C7016,2121 6991,2121 6973,2113ZM7010,2050C7010,2045 7006,2040 7000,2040C6995,2040 6990,2045 6990,2050C6990,2056 6995,2060 7000,2060C7006,2060 7010,2056 7010,2050Z" style="fill:rgb(142,90,156);fill-rule:nonzero;"/>
            </g>
            <g transform="matrix(1,0,0,1,-1715.99,1441.16)">
                <path d="M3857,2093C3841,2077 3853,2070 3895,2070C3928,2070 3940,2074 3940,2085C3940,2096 3929,2100 3902,2100C3881,2100 3860,2097 3857,2093Z" style="fill:rgb(142,90,156);fill-rule:nonzero;"/>
            </g>
        </g>
    </g>
</svg>
